<?xml version="1.0" encoding="iso-8859-1"?>
<!-- Generator: Adobe Illustrator 16.0.0, SVG Export Plug-In . SVG Version: 6.00 Build 0)  -->
<!DOCTYPE svg PUBLIC "-//W3C//DTD SVG 1.1//EN" "http://www.w3.org/Graphics/SVG/1.1/DTD/svg11.dtd">
<svg version="1.1" id="Capa_1" xmlns="http://www.w3.org/2000/svg" xmlns:xlink="http://www.w3.org/1999/xlink" x="0px" y="0px"
	 width="479.282px" height="479.282px" viewBox="0 0 479.282 479.282" style="enable-background:new 0 0 479.282 479.282;"
	 xml:space="preserve">
<g>
	<path d="M96.204,421.199v1.875c0,32.646,26.459,56.208,59.106,56.208h167c32.646,0,60.77-23.562,60.77-56.199v-1.874
		c0-23.896-13.579-44.36-33.976-53.674c2.869-5.651,5.288-11.896,5.288-18.57v-3.749c0-21.773-18.694-39.598-40.966-42.553
		c0-0.211-0.688,0.765-0.688,0.564c0-24.873-21.669-43.873-47.468-43.873h-5.222c-2.275-28.688-16.801-49.228-13.722-30.026
		c1.73,10.806-2.965,20.464-8.482,30.026h-34.865c-25.809,0-46.723,19-46.723,43.873c0,1.09-0.411,1.52-0.334,2.591
		c-17.365,6.378-31.03,21.258-31.03,39.388v3.749c0,6.617,2.524,12.813,5.565,18.417C109.907,376.639,96.204,397.197,96.204,421.199
		z"/>
	<path d="M164.346,16.132c-11.408,6.522-65.475,41.808-21.238,102.845c49.218,67.923,10.509,100.952,10.509,100.952
		s67.473-36.242,22.338-102.348C133.794,55.835,153.846,23.161,164.346,16.132z"/>
	<path d="M166.393,15.004c0,0-0.402,0.201-1.071,0.574C165.685,15.386,166.067,15.138,166.393,15.004z"/>
	<path d="M256.461,0c0,0-0.401,0.201-1.071,0.574C255.754,0.373,256.136,0.125,256.461,0z"/>
	<path d="M254.416,1.119c-11.408,6.521-65.475,41.807-21.238,102.845c49.218,67.922,10.509,100.951,10.509,100.951
		s67.473-36.242,22.338-102.348C223.863,40.822,243.916,8.157,254.416,1.119z"/>
	<path d="M329.471,31.145C318.063,37.667,263.997,72.953,308.233,134c49.218,67.922,10.509,100.951,10.509,100.951
		s67.474-36.242,22.339-102.347C298.919,70.849,318.971,38.174,329.471,31.145z"/>
	<path d="M331.527,30.017c0,0-0.401,0.201-1.07,0.574C330.81,30.39,331.202,30.151,331.527,30.017z"/>
</g>
<g>
</g>
<g>
</g>
<g>
</g>
<g>
</g>
<g>
</g>
<g>
</g>
<g>
</g>
<g>
</g>
<g>
</g>
<g>
</g>
<g>
</g>
<g>
</g>
<g>
</g>
<g>
</g>
<g>
</g>
</svg>
