<?xml version="1.0" encoding="iso-8859-1"?>
<!-- Generator: Adobe Illustrator 18.1.1, SVG Export Plug-In . SVG Version: 6.00 Build 0)  -->
<svg version="1.1" id="Capa_1" xmlns="http://www.w3.org/2000/svg" xmlns:xlink="http://www.w3.org/1999/xlink" x="0px" y="0px"
	 viewBox="0 0 204.338 204.338" style="enable-background:new 0 0 204.338 204.338;" xml:space="preserve">
<g>
	<g>
		<path style="fill:#010002;" d="M102.169,0C68.213,0,40.595,27.625,40.595,61.574c0,32.653,56.442,133.616,58.843,137.9
			l2.731,4.864l2.738-4.864c2.398-4.28,58.836-105.247,58.836-137.9C163.743,27.625,136.118,0,102.169,0z M102.169,6.263
			c30.503,0,55.315,24.816,55.315,55.311c0,27.378-45.111,111.274-55.315,129.884C91.973,172.837,46.854,88.927,46.854,61.574
			C46.854,31.079,71.674,6.263,102.169,6.263z"/>
		<path style="fill:#010002;" d="M102.169,80.059c12.802,0,23.209-10.407,23.209-23.205s-10.411-23.205-23.209-23.205
			c-12.791,0-23.198,10.407-23.198,23.205S89.375,80.059,102.169,80.059z M102.169,39.915c9.341,0,16.942,7.605,16.942,16.939
			s-7.605,16.935-16.942,16.935s-16.935-7.598-16.935-16.935S92.832,39.915,102.169,39.915z"/>
	</g>
</g>
<g>
</g>
<g>
</g>
<g>
</g>
<g>
</g>
<g>
</g>
<g>
</g>
<g>
</g>
<g>
</g>
<g>
</g>
<g>
</g>
<g>
</g>
<g>
</g>
<g>
</g>
<g>
</g>
<g>
</g>
</svg>
