<?xml version="1.0" encoding="iso-8859-1"?>
<!-- Generator: Adobe Illustrator 18.1.1, SVG Export Plug-In . SVG Version: 6.00 Build 0)  -->
<svg version="1.1" id="Capa_1" xmlns="http://www.w3.org/2000/svg" xmlns:xlink="http://www.w3.org/1999/xlink" x="0px" y="0px"
	 viewBox="0 0 266.509 266.509" style="enable-background:new 0 0 266.509 266.509;" xml:space="preserve">
<g>
	<g>
		<path style="fill:#010002;" d="M0,133.29c0,10.372,5.591,16.469,10.878,20.891v31.47c-5.646,7.147-10.639,13.995-9.23,21.658
			c0.538,2.943,2.306,7.114,7.658,10.296c5.341,3.176,10.497,4.721,15.757,4.721c10.514,0,18.433-6.162,26.086-12.124
			c0.348-0.272,0.691-0.533,1.039-0.8h49.806c7.229,5.406,15.849,10.878,31.291,10.878c15.371,0,24.285-5.662,31.275-10.878h49.773
			c0.348,0.272,0.691,0.533,1.039,0.805c7.653,5.961,15.572,12.124,26.08,12.124c5.194,0,10.492-1.588,15.762-4.732
			c4.868-2.899,7.707-6.57,8.441-10.922c1.218-7.196-3.579-12.912-8.654-18.961c-0.451-0.533-0.914-1.115-1.371-1.664v-31.742
			c5.352-4.928,10.878-11.449,10.878-21.093c0-10.372-5.591-16.469-10.878-20.891v-31.47c5.646-7.147,10.639-13.995,9.23-21.658
			c-0.538-2.943-2.306-7.114-7.658-10.296c-5.341-3.176-10.497-4.721-15.757-4.721c-10.514,0-18.433,6.162-26.091,12.124
			c-0.348,0.272-0.691,0.533-1.039,0.8h-49.8c-7.229-5.406-15.849-10.878-31.291-10.878c-15.371,0-24.285,5.662-31.275,10.878
			H52.177c-0.348-0.272-0.691-0.533-1.039-0.805c-7.653-5.961-15.572-12.124-26.08-12.124c-5.194,0-10.492,1.588-15.762,4.732
			c-5.352,3.193-7.12,7.364-7.664,10.307c-1.409,7.675,3.595,14.528,9.246,21.68v31.492C5.591,116.815,0,122.912,0,133.29z
			 M27.195,191.303v-14.571v-18.515v-11.825v-26.216v-11.83V89.815V75.239v-1.817h19.537h16.187h28.446h16.045h51.649h16.056h28.463
			h16.187h19.553V75.2v14.571v18.52v11.825v26.82v11.716v17.546v15.567v1.316h-19.537h-16.187h-28.446h-16.045h-51.649H91.398
			H62.935H46.749H27.195V191.303z"/>
	</g>
</g>
<g>
</g>
<g>
</g>
<g>
</g>
<g>
</g>
<g>
</g>
<g>
</g>
<g>
</g>
<g>
</g>
<g>
</g>
<g>
</g>
<g>
</g>
<g>
</g>
<g>
</g>
<g>
</g>
<g>
</g>
</svg>
