<?xml version="1.0" encoding="iso-8859-1"?>
<!-- Generator: Adobe Illustrator 18.0.0, SVG Export Plug-In . SVG Version: 6.00 Build 0)  -->
<!DOCTYPE svg PUBLIC "-//W3C//DTD SVG 1.1//EN" "http://www.w3.org/Graphics/SVG/1.1/DTD/svg11.dtd">
<svg version="1.1" id="Capa_1" xmlns="http://www.w3.org/2000/svg" xmlns:xlink="http://www.w3.org/1999/xlink" x="0px" y="0px"
	 viewBox="0 0 460.081 460.081" style="enable-background:new 0 0 460.081 460.081;" xml:space="preserve">
<g>
	<path d="M458.84,324.092c-1.525-1.959-4.105-2.758-6.47-1.996c-18.961,6.152-53.921,13.986-90.48,4.451
		c-42.206-11.006-33.672-67.344-87.431-67.344c-18.03,0-33.918,8.496-44.423,21.512c-10.497-13.016-26.387-21.512-44.415-21.512
		c-53.758,0-45.225,56.338-87.43,67.344c-36.561,9.535-71.519,1.701-90.479-4.451c-2.365-0.762-4.945,0.037-6.47,1.996
		c-1.525,1.955-1.656,4.658-0.331,6.754c13.101,20.801,43.307,57.793,96.094,66.164c35.367,5.608,77.326,0.434,95.702-8.439
		c16.751-8.088,29.059-17.953,37.33-29.598c8.279,11.645,20.587,21.51,37.338,29.598c18.376,8.873,60.335,14.047,95.702,8.439
		c52.788-8.371,82.994-45.363,96.095-66.164C460.495,328.751,460.364,326.048,458.84,324.092z"/>
	<path d="M443.113,96.442h-3.863c-4.001-32.289-75.602-35.703-97.43-35.703c-21.872,0-93.514,2.525-97.249,34.996
		c-0.184,1.664-0.115,3.342,0.223,4.977l1.495,7.254c-10.713-2.473-21.797-2.473-32.51,0.008l1.495-7.262
		c0.337-1.635,0.407-3.313,0.223-4.977c-3.735-32.471-75.377-34.996-97.25-34.996c-21.832,0-93.35,3.4-97.328,35.703h-3.958
		c-8.71,0-15.773,7.064-15.773,15.773c0,8.713,7.064,15.773,15.773,15.773h9.866l9.92,48.305c1.509,7.334,7.964,12.602,15.45,12.602
		h132.1c7.486,0,13.94-5.268,15.45-12.602l6.315-30.752c14.21-10.596,33.726-10.596,47.942-0.006l6.315,30.758
		c1.51,7.334,7.964,12.602,15.45,12.602h132.1c7.486,0,13.94-5.268,15.45-12.602l9.92-48.305h9.874
		c8.709,0,15.773-7.061,15.773-15.773C458.886,103.507,451.823,96.442,443.113,96.442z M171.435,157.348H65.058l-11.405-55.52
		c8.533-4.092,31.084-9.543,64.594-9.543c33.51,0,56.061,5.451,64.594,9.543L171.435,157.348z M395.008,157.348H288.631
		l-11.406-55.52c8.533-4.092,31.084-9.543,64.594-9.543c33.51,0,56.061,5.451,64.594,9.543L395.008,157.348z"/>
</g>
<g>
</g>
<g>
</g>
<g>
</g>
<g>
</g>
<g>
</g>
<g>
</g>
<g>
</g>
<g>
</g>
<g>
</g>
<g>
</g>
<g>
</g>
<g>
</g>
<g>
</g>
<g>
</g>
<g>
</g>
</svg>
