<?xml version="1.0" encoding="iso-8859-1"?>
<!-- Generator: Adobe Illustrator 16.0.0, SVG Export Plug-In . SVG Version: 6.00 Build 0)  -->
<!DOCTYPE svg PUBLIC "-//W3C//DTD SVG 1.1//EN" "http://www.w3.org/Graphics/SVG/1.1/DTD/svg11.dtd">
<svg version="1.1" id="Capa_1" xmlns="http://www.w3.org/2000/svg" xmlns:xlink="http://www.w3.org/1999/xlink" x="0px" y="0px"
	 width="470.953px" height="470.953px" viewBox="0 0 470.953 470.953" style="enable-background:new 0 0 470.953 470.953;"
	 xml:space="preserve">
<g>
	<g id="Capa_1_1_">
		<g>
			<polygon points="103.307,124.065 103.295,124.065 103.307,124.066 			"/>
			<polygon points="103.307,441.967 103.307,441.967 103.295,441.967 			"/>
			<path d="M466.018,200.005c-15.733,0-32.369-7.861-38.695-21.965c0.36,0,0.721,0.228,1.081,0.228
				c24.776,0,35.444-14.986,35.444-27.823c0-10.849-7.052-20.239-20.25-20.239c-19.351,0-27.667,20.437-27.667,35.626
				c0,0.365,0.293,0.908,0.293,1.272c-13.926-6.332-21.771-22.963-21.771-38.697v-4.902h-26.297v0.562
				c-2.391,0-4.36,0.084-6.195,0.236c0.452,0.7,0.775,1.404,1.206,2.148c0.392,0.678,0.727,1.428,1.216,2.223
				c0.762,1.24,1.593,2.761,2.423,4.247c0.29-0.002,0.562,0.148,0.863,0.148h0.487h17.574c1.445,19.125,12.696,38.356,31.683,43.782
				c5.425,18.985,24.853,30.398,43.978,31.848v148.641c-19.125,1.445-38.553,12.74-43.979,31.725
				c-18.984,5.247-30.055,24.902-31.681,44.027h-17.574h-0.487c-6.872,0-11.573-0.625-15.01-2.071
				c3.8-4.701,5.786-10.623,5.786-15.684c0-8.679-5.062-15.525-12.839-15.525c-7.593,0-12.658,6.884-12.658,15.562
				c0,5.062,1.99,11.038,5.786,15.739c-4.157,1.807-9.402,2.715-14.825,2.715c-5.605,0-11.213-0.903-15.553-2.71
				c3.796-4.701,5.786-10.67,5.786-15.732c0-8.678-5.062-15.55-12.839-15.55c-7.593,0-12.658,6.872-12.658,15.55
				c0,5.062,1.99,11.032,5.786,15.733c-4.157,1.807-9.402,2.711-14.648,2.711c-5.422,0-11.029-0.904-15.369-2.711
				c3.796-4.701,5.786-10.671,5.786-15.733c0-8.678-5.062-15.55-12.839-15.55c-7.593,0-12.658,6.872-12.658,15.55
				c0,5.062,1.99,11.032,5.787,15.733c-4.158,1.807-9.402,2.711-14.83,2.711c-5.422,0-11.029-0.904-15.369-2.711
				c3.796-4.701,5.787-10.671,5.787-15.733c0-8.678-5.062-15.55-12.839-15.55c-7.597,0-12.659,6.872-12.659,15.55
				c0,5.062,1.99,11.032,5.787,15.733c-4.161,1.807-9.402,2.711-14.829,2.711c-5.422,0-11.029-0.904-15.369-2.711
				c3.796-4.701,5.786-10.671,5.786-15.733c0-8.678-5.062-15.55-12.838-15.55c-7.596,0-12.659,6.872-12.659,15.55
				c0,5.062,1.99,11.032,5.787,15.733c-4.161,1.807-9.402,2.711-14.648,2.711c-5.422,0-11.029-0.904-15.37-2.711
				c3.796-4.701,5.787-10.671,5.787-15.733c0-8.678-5.062-15.55-12.839-15.55c-7.596,0-12.658,6.872-12.658,15.55
				c0,5.062,1.99,10.934,5.787,15.635c-3.437,1.445-8.138,2.071-15.01,2.071h-0.496H85.222
				c-1.625-19.125-12.695-38.78-31.682-44.027c-5.426-18.984-24.853-30.279-43.978-31.725V208.698
				c19.125-1.45,38.552-12.863,43.979-31.849c18.985-5.425,30.235-24.657,31.681-43.782h17.575h0.499
				c0.776,0,1.516-0.148,2.236-0.129c2.927-2.5,5.862-4.302,8.158-5.646l0.221-0.17c0.958-0.563,1.668-1.1,2.634-1.596
				c-3.672-0.931-7.772-1.461-13.749-1.462v-0.561H76.5v4.902c0,15.734-7.845,32.369-21.768,38.7c0-0.365,0.237-0.905,0.237-1.27
				c0-15.189-8.29-35.62-27.639-35.62c-13.199,0-20.237,9.402-20.237,20.251c0,12.839,10.676,27.847,35.451,27.847
				c0.361,0,0.725-0.276,1.089-0.276c-6.332,14.105-22.963,21.966-38.697,21.966H0v166.148h4.936
				c15.734,0,32.369,7.619,38.699,21.723c-0.364,0-0.724-0.26-1.085-0.26c-23.51,0-35.444,15.875-35.444,29.074
				c0,10.308,6.691,19.149,20.251,19.149c19.35,0,27.667-20.625,27.667-35.813c0-0.365-0.292-0.729-0.292-1.091
				c14.104,6.327,21.768,22.961,21.768,38.691v3.831h26.297v0.509c10.758-0.001,17.064-1.807,22.125-4.881
				c5.967,3.615,13.872,5.241,21.828,5.241c7.957,0,15.974-1.626,22.306-5.241c5.967,3.615,13.955,5.241,21.912,5.241
				c7.958,0,15.93-1.626,22.258-5.241c5.967,3.615,13.931,5.241,21.888,5.241c7.958,0,15.918-1.626,22.245-5.241
				c5.968,3.615,13.746,5.241,21.702,5.241s15.916-1.626,22.242-5.241c5.968,3.615,14.105,5.241,22.062,5.241
				s16.169-1.626,22.497-5.241c5.241,3.073,11.536,4.879,22.294,4.881v-0.509h26.297v-3.832c0-15.73,7.664-32.369,21.768-38.696
				c0,0.361-0.237,0.721-0.237,1.086c0,15.188,8.29,35.804,27.64,35.804c13.56,0,20.236-8.861,20.236-19.169
				c0-13.198-11.94-29.113-35.45-29.113c-0.361,0-0.725,0.339-1.085,0.339c6.326-14.104,22.959-21.723,38.691-21.723h4.939V200.005
				H466.018z"/>
			<path d="M367.646,441.967h0.023C367.66,441.967,367.654,441.967,367.646,441.967L367.646,441.967z"/>
			<path d="M367.646,124.065L367.646,124.065c0.008,0,0.015,0,0.023,0H367.646z"/>
			<path d="M201.295,116.875c-0.585,2.015-0.972,3.805,1.231,5.558c1.461,1.166,2.859,2.411,4.235,3.685
				c2.034,1.884,4.008,3.843,5.966,5.807c1.106,1.109,1.777,1.645,2.451,1.645c0.693,0,1.393-0.566,2.573-1.659
				c2.84-2.625,5.794-5.146,8.84-7.541c0.874-0.688,1.752-1.368,2.641-2.033c4.806-3.591,9.989-6.684,14.732-10.348
				c3.818-2.941,7.278-6.365,10.813-9.658c5.719-5.343,10.619-11.357,14.357-18.254c0.838-1.545,0.941-3.361,1.235-5.064
				c-0.239,1.388-7.905,3.886-9.236,4.403c-3.364,1.308-6.831,2.354-10.354,3.143c-5.397,1.208-10.928,1.805-16.458,1.805
				c-1.703,0-3.407-0.056-5.106-0.17c-15.081-1.004-26.733-6.699-39.078-14.65c-0.922-0.594-2.055-0.871-3.196-0.871
				c-2.152,0-4.33,0.985-5.163,2.681c-1.29,2.638-1.854,5.485-1.147,8.408c0.94,3.89,1.99,7.743,2.982,11.612
				c1.285,5.039,2.544,10.087,3.848,15.122c0.115,0.438,0.326,0.973,0.675,1.219c2.938,2.068,5.917,4.083,9.166,6.307
				c3.437-10.917-0.666-19.989-5.583-29.008c2.986,2.24,5.735,4.561,8.288,7.083c3.505,3.471,4.847,7.787,3.825,12.608
				C203.243,111.478,202.082,114.132,201.295,116.875z M190.033,79.883c1.529,0.751,3.218,1.292,4.552,2.303
				c7.08,5.354,14.542,9.841,23.01,12.801c6.884,2.411,13.867,3.301,20.986,3.301c0.755,0,1.513-0.01,2.271-0.03
				c3.304-0.084,6.591-0.744,10.354-1.201c-2.132,4.204-5.726,5.966-9.135,6.977c-3.864,1.152-8.052,2.134-12.072,2.134
				c-0.828,0-1.651-0.042-2.46-0.133c-8.036-0.893-15.544-3.626-21.358-10.094C201.177,90.367,195.439,85.445,190.033,79.883z"/>
			<path d="M160.615,118.545c5.909,1.842,11.732,4.014,17.262,6.808c0.21,0.106,0.427,0.197,0.636,0.305
				c2.878,1.486,5.667,3.148,8.311,5.022c0.712,0.506,1.366,1.046,1.989,1.609c1.64,1.481,3.053,3.126,4.646,4.766
				c0.415,0.427,1.294,0.904,0.563,1.347c-0.017,0.01-0.04,0.015-0.068,0.015c-0.66,0-4.468-2.453-5.031-2.741
				c-1.788-0.915-3.594-1.793-5.416-2.638c-0.086-0.04-0.173-0.074-0.259-0.114c-3.561-1.644-7.182-3.157-10.856-4.529
				c-0.45-0.167-0.9-0.324-1.351-0.485c-6.817-2.453-13.745-4.266-20.79-5.92c-1.354-0.318-4.219-0.471-5.285-1.47
				c0.032,0.376,0.027,0.594,0.077,0.76c0.011,0.026,0.02,0.051,0.031,0.078c0.323,0.798,0.672,1.587,1.03,2.372
				c1.349,2.949,2.937,5.806,4.636,8.597c1.89,3.104,3.91,6.128,5.896,9.098c0.376,0.562,0.771,1.115,1.153,1.674
				c3.837,5.616,7.94,11.049,12.315,16.257c1.538,1.832,3.12,3.625,4.72,5.4c3.508,3.894,7.154,7.662,10.948,11.277
				c2.791,2.658,5.658,5.239,8.594,7.736c2.802,2.382,5.717,4.306,8.652,6.453c6.11,4.465,12.882,7.763,20.008,10.291
				c4.288,1.525,9.232,2.291,14.344,2.291c13.491,0,28.154-5.329,35.036-16.073c2.103-3.282,4.773-13.126,0.782-16.393
				c-0.48-0.393-1.058-0.691-1.745-0.871c-3.913-1.023-7.709-2.216-11.41-3.554c-4.333-1.566-8.519-3.351-12.606-5.291
				c-7.473-3.546-14.582-7.665-21.479-12.178c-11.377-7.443-22.197-15.938-33.144-24.688c-0.811-0.648-1.619-1.293-2.431-1.942
				c-3.04-2.113-6.158-4.111-9.375-5.959c-6.82-3.916-14.146-7.05-21.842-8.759c-4.156-0.922-8.388-1.526-12.612-1.526
				c-3.206,0-6.408,0.348-9.575,1.167c-2.645,0.685-4.347,1.407-6.224,3.328c4.562,2.022,9.948,2.952,14.771,4.24
				C150.569,115.65,155.624,116.989,160.615,118.545z M131.637,110.33c-0.033-0.022-0.062-0.041-0.095-0.063
				c0.183,0.053,0.373,0.086,0.559,0.101C131.948,110.355,131.793,110.343,131.637,110.33z"/>
			<path d="M204.588,70.667c-0.985,1.017-2.196,2.279-3.643,3.777c7.627,2.643,14.334,6.284,22.52,8.193
				c-0.717-2.245-1.113-3.76-1.676-5.213c-1.671-4.346-1.979-8.572,1.547-12.141c1.586-1.605,3.464-3.107,5.49-4.04
				c4.161-1.917,8.513-3.425,13.082-5.214c-0.79-0.48-1.48-0.966-2.216-1.343c-4.324-2.197-9.08-2.018-13.721-2.358
				c-0.576-0.042-1.151-0.063-1.72-0.063c-4.922,0-9.5,1.593-12.696,5.376c-4.056,4.804-5.503,6.146-0.726,11.234
				c1.695,1.793,3.672,3.323,5.515,4.972c-0.06,0.125-0.125,0.251-0.192,0.378C212.354,73.053,208.561,71.883,204.588,70.667z"/>
			<path d="M329.662,56.345c-0.018-0.077-0.04-0.147-0.06-0.223c-1.151-3.11-2.977-5.871-5.871-7.659
				c-1.075-0.665-2.215-1.176-3.383-1.709c-0.287-0.08-0.576-0.157-0.875-0.225c-0.098-0.021-0.196-0.047-0.294-0.067
				c1.581,0.563,3.116,1.241,4.541,2.122C326.668,50.403,328.515,53.169,329.662,56.345z"/>
			<path d="M154.218,101.035c0.34,0.202,0.724,0.389,1.111,0.457c3.366,0.612,6.761,1.09,10.106,1.813
				c3.025,0.66,6.01,1.523,8.98,2.403c2.075,0.622,4.092,1.431,6.407,2.252c-0.025-0.856,0.031-1.25-0.059-1.601
				c-2.416-9.363-5.502-18.622-6.825-28.231c-0.351-2.545-0.543-5.292,0.711-7.534c1.455-2.6,4.576-3.857,7.583-3.857
				c0.288,0,0.576,0.012,0.861,0.035c3.156,0.255,5.715,2.65,8.796,2.811c0.106,0.006,0.211,0.009,0.318,0.009
				c2.993,0,5.886-2.184,7.554-4.5c2.323-3.225,3.377-7.188,5.367-10.627c2.566-4.436,6.799-7.796,11.583-9.569
				c2.302-0.853,4.25-1.159,6.105-1.159c3.047,0,5.84,0.828,9.534,1.422c0.68,0.11,1.377,0.17,2.07,0.17
				c1.681,0,3.352-0.353,4.785-1.209c8.62-5.15-1.521-10.208-6-12.325c-4.591-2.168-9.68-3.168-14.769-3.168
				c-3.257,0-6.512,0.409-9.642,1.182c-10.74,2.656-20.149,9.174-28.325,16.628c-8.176,7.454-15.36,15.93-23.397,23.533
				c-3.007,2.845-6.175,5.616-8.359,9.132C144.136,86.468,146.794,96.559,154.218,101.035z"/>
			<path d="M268.184,61.108c-0.012-0.007-0.018-0.014-0.029-0.014c-0.751-0.061-1.504-0.077-2.258-0.077
				c-0.874,0-1.75,0.021-2.631,0.021c-0.676,0-1.354-0.013-2.035-0.059c-2.744-0.183-5.469-0.605-8.22-0.693
				c-0.403-0.013-0.81-0.019-1.221-0.019c-7.431,0-16.194,2.116-22.226,6.363c-1.734,1.222-3.225,2.904-3.815,4.941
				c-0.769,2.651,0.122,5.615,1.921,7.709c3.146,3.664,8.314,4.704,13.078,4.704c0.962,0,1.907-0.043,2.817-0.115
				c1.64-0.129,3.393-0.468,4.527-1.659c1.283-1.343,1.401-3.582,0.425-5.163c-0.94-1.522-2.752-2.402-4.544-2.402
				c-0.067,0-0.135,0.001-0.203,0.003c-3.034,0.114-4.708,2.28-6.462,4.421c-0.345-1.042-0.108-2.216,0.438-3.168
				c0.547-0.953,1.375-1.713,2.251-2.375c2.312-1.75,5.052-2.93,7.911-3.408c0.656-0.11,1.335-0.178,2.008-0.178
				c1.352,0,2.684,0.275,3.777,1.041c1.229,0.862,2.023,2.313,2.088,3.812c0.081,1.874-1.236,3.748-2.155,5.269
				c-0.007,0.012-0.007,0.018-0.008,0.024c-0.084,0.763,0.396,1.016,1.075,1.016c0.097,0,0.198-0.005,0.302-0.014c0,0,0,0,0.001,0
				c0.006,0,0.02-0.005,0.037-0.01c0.001,0.001,0.002,0.002,0.004,0.002c0.004,0,0.011-0.007,0.014-0.007l0,0
				c3.44-1,6.764-2.365,10.131-3.582c2.234-0.808,7.7-1.538,5.745-5.209c-0.369-0.694-0.911-1.279-1.366-1.922
				c-0.936-1.326-1.465-2.924-1.559-4.541c-0.031-0.536,0.221-1.47,0.389-2.379C268.578,62.451,268.666,61.488,268.184,61.108z"/>
			<path d="M267.751,160.134c0.005-0.002,0.009-0.003,0.014-0.004c3.699-1.769,6.223-5.322,8.085-8.975
				c2.962-5.811,4.616-12.266,4.917-18.777c0.003-0.048,0.005-0.104,0.008-0.153c-0.33-0.007-0.66-0.021-0.99-0.021
				c-5.422,0-11.029,0.905-15.369,2.715l0,0c4.34-1.81,9.947-2.715,15.369-2.715c0.33,0,0.66,0.015,0.99,0.021
				c0.096-2.119,0.189-5.296-0.069-8.477c-0.318-3.895-1.171-7.782-3.227-9.696c-0.536-0.5-0.971-0.699-1.377-0.699
				c-0.859,0-1.598,0.888-2.936,1.721c-7.362,4.584-15.826,6.921-23.9,9.889c-0.175,0.063-0.428,0.17-0.719,0.296
				c-0.075-0.02-0.149-0.049-0.225-0.068c-2.394,1.063-7.729,4.291-12.677,6.682c-6.939,4.781-13.104,9.582-9.269,11.993
				c6.132,3.873,12.431,7.546,18.782,11.062c0.004,0.014,0.004,0.031,0.008,0.045c1.782,0.986,3.566,1.989,5.354,2.967
				c2.695,1.475,5.716,2.696,8.751,3.184c0.93,0.149,1.862,0.235,2.785,0.235c1.963,0,3.89-0.366,5.695-1.226
				c1.569-2.616,2.449-5.888,2.45-9.484l0,0C270.201,154.245,269.322,157.519,267.751,160.134z M244.704,150.607
				c0-0.007,0.001-0.014,0.001-0.021c0,0.753,0.041,1.5,0.119,2.231C244.746,152.099,244.704,151.366,244.704,150.607z
				 M246.913,140.682c0.916-2.093,2.103-4.119,3.565-5.934c0.004,0.001,0.009,0.002,0.013,0.005
				C249.021,136.572,247.831,138.595,246.913,140.682z"/>
			<path d="M314.87,113.681c-2.95,1.525-4.916,4.403-6.759,7.167c-0.549,0.824-2.149,3.346-4.349,6.786
				c-3.965,6.204-9.877,15.392-15.115,23.058c-5.264,7.704-9.846,13.865-11.064,13.865c-0.054,0-0.101-0.012-0.141-0.036
				c7.595,4.547,7.612,11.392,4.535,18.997c0.613-0.032,0.854,0,1.059-0.064c9.272-2.883,16.522-9.12,24.229-14.616
				c4.104-2.93,8.25-5.826,12.555-8.441c4.284-2.597,8.757-4.737,13.375-6.507c4.786-1.834,9.731-3.274,14.794-4.396
				c3.56-0.787,4.521-2.754,2.857-6.028c-1.291-2.552-2.913-4.939-4.354-7.421c-2.286-3.952-5.335-7.216-8.566-10.328
				c-1.156-1.113-2.332-2.207-3.508-3.304c-3.542-3.304-10.614-9.456-16.416-9.456C316.902,112.954,315.847,113.176,314.87,113.681z
				"/>
			<path d="M251.705,50.847c3.082,0.353,6.996,0.481,9.326,0.481c0.978,0,1.676-0.022,1.917-0.061
				c5.579-0.89,10.403-3.723,16.131-4.168c0.961-0.075,1.925-0.113,2.883-0.113c5.697,0,11.285,1.371,16.028,4.728
				c4.906,3.472,9.7,7.116,14.516,10.711c0.471,0.349,0.762,0.922,1.6,1.966c-2.288-0.607-3.959-0.828-5.439-1.489
				c-4.524-2.026-8.852-4.567-13.508-6.218c-2.868-1.016-6.074-0.67-9.062-0.86c0.177,1.54,1.029,2.201,2.007,3.391
				c1.136,1.383,2.127,2.884,2.957,4.469c1.662,3.168,2.684,6.678,2.937,10.25c0.269,3.801-0.335,7.653-1.704,11.206
				c-1.436,3.729-3.896,6.921-5.697,10.469c-1.377,2.712-2.782,5.417-3.911,8.229c-2.038,5.053-0.617,9.921,1.174,14.715
				c0.328,0.874,0.767,1.713,1.18,2.625c1.682-3.816,2.978-7.478,5.307-11.004c2.327-3.52,5.011-6.783,7.586-10.122
				c4.241-5.499,8.297-11.455,9.548-18.286c0.485-2.651,1.258-5.662,4.518-5.662c0.046,0,0.092,0,0.14,0.001
				c0.684,3.022,1.296,6.02,1.046,9.138c0.01,0.12,0.005,0.244,0.008,0.362c0.185,7.367-6.726,12.627-10.908,17.839
				c-4.697,5.854-8.823,12.201-11.941,19.041c-0.333,0.73-0.643,1.47-0.951,2.211c-0.096,0.229-0.202,0.454-0.295,0.685
				c-0.975,2.405-1.808,4.862-2.56,7.346c-0.512,1.693-0.992,3.395-1.431,5.108c-0.551,2.157-1.052,4.327-1.53,6.502
				c-0.4,1.824-1.506,4.55-1.254,6.36c0.611-0.069,1.177-1.217,1.47-1.76c1.902-3.531,3.569-7.211,5.71-10.592
				c0.899-1.425,1.81-2.841,2.713-4.264c1.536-2.417,3.069-4.836,4.614-7.248c2.424-3.788,4.856-7.57,7.288-11.352
				c4.813-7.485,10.828-13.953,16.298-20.941c5.621-7.181,10.581-15.357,11.442-24.437c0.86-9.08-3.384-19.143-11.794-22.67
				c-11.52-4.832-24.315-8.604-36.664-10.467c-3.905-0.589-8.393-1.118-12.87-1.118c-10.119,0-20.188,2.698-23.376,13.487
				C246.939,50.055,249.002,50.537,251.705,50.847z"/>
			<path d="M222.44,138.062c0.221-0.08,0.4-0.151,0.485-0.206c0.053-0.035,0.105-0.069,0.157-0.106
				c1.151-0.812,2.047-2.141,3.023-3.145c0.576-0.593,1.167-1.182,1.763-1.767c3.237-3.175,6.781-6.187,10.651-8.479
				c0.285-0.168,0.582-0.318,0.875-0.475c3.862-2.069,8.382-3.188,12.459-4.86c9.435-3.869,18.714-9.002,25.015-17.246
				c4.524-5.919,7.204-13.041,9.185-20.222c1.025-3.717,1.881-7.649,0.984-11.4c-0.676-2.829-5.54-8.43-9.43-8.43
				c-0.964,0-1.869,0.344-2.636,1.162c-2.476,2.639,0.853,8.623,0.84,11.679c-0.029,6.04-1.982,12.04-5.102,17.177
				c-4.937,8.131-12.476,14.327-20.213,19.859c-5.634,4.027-11.46,7.804-16.866,12.141c-0.184,0.147-0.376,0.283-0.559,0.433
				c-3.501,2.85-7.753,5.908-10.319,9.866c-0.504,0.778-0.95,1.588-1.305,2.442c-0.318,0.766-0.571,1.562-0.741,2.396
				C220.762,138.622,221.787,138.298,222.44,138.062z"/>
			<path d="M114.942,150.826c-0.44,1.129-0.557,2.354-0.193,3.506c0.319,0.991,0.955,1.839,1.7,2.58
				c0.006,0.007,0.012,0.007,0.018,0.014c0.42,0.357,0.862,0.68,1.32,0.96c2.65,1.621,5.312,3.237,7.991,4.81
				c0.012,0.007,0.018,0.007,0.022,0.015c0.205,0.097,0.408,0.201,0.612,0.299c1.348,0.655,2.692,1.321,4.033,1.994
				c3.42,1.718,6.806,3.508,10.087,5.462c0.054,0.029,0.106,0.059,0.16,0.087c5.105,2.864,10.304,5.606,14.053,10.368
				c0.373,0.472,0.735,0.938,1.108,1.411c0.006,0.006-0.001,0.019,0.011,0.026c5.904,6.188,10.659,13.338,16.064,20.079
				c4.595,5.722,10.503,8.266,17.145,8.266c1.352,0,2.689-0.105,4.096-0.311c7.062-1.029,13.622-3.175,20.793-4.821
				c0-0.225,0-0.442,0-0.667c-3.586-2.452-9.703-4.647-14.353-7.431c-11.999-7.185-22.78-15.89-32.051-26.39
				c-2.478-2.807-4.818-5.734-7.042-8.746c-0.551-0.746-1.108-1.486-1.642-2.244c-0.937-1.328-1.85-2.671-2.736-4.034
				c-3.471-5.342-6.194-11.034-9.32-16.567c-0.744-1.316-1.505-2.87-3.212-2.87c-0.249,0-0.519,0.033-0.811,0.105
				c-2.672,0.651-5.337,1.328-7.958,2.125c-3.892,1.183-7.686,2.639-11.25,4.729c-3.295,1.93-6.573,3.792-8.637,7.229
				C114.944,150.814,114.942,150.82,114.942,150.826z"/>
		</g>
	</g>
</g>
<g>
</g>
<g>
</g>
<g>
</g>
<g>
</g>
<g>
</g>
<g>
</g>
<g>
</g>
<g>
</g>
<g>
</g>
<g>
</g>
<g>
</g>
<g>
</g>
<g>
</g>
<g>
</g>
<g>
</g>
</svg>
